<svg fill="black" xmlns="http://www.w3.org/2000/svg" viewBox="0 0 2508 2508"><path d="M1808.5 752.3c-20.3 20.5-55.6 56.6-81 82.7-9.4 9.6-47.2 48.3-84.1 86-36.8 37.7-74.2 76.1-83 85.5-34.1 36.1-62.4 66.8-62.4 67.6 0 .5.6.9 1.3.9s6.7 2.7 13.2 5.9c41.1 20.3 68.1 57.2 74.6 102 1.6 11.2.6 33-2 44.5l-2.1 8.9 4.4 8.1c5.8 10.6 10.9 24.6 13.8 37.6 3 13.6 3.3 41.3.5 55.5-9.8 50.1-41.4 91.4-86.9 113.8l-12.7 6.2-1.2 5c-2.1 8.7-8.8 27.4-12.5 34.6-28 55.7-83.7 92.2-153.9 101-12.8 1.6-47.2 1.6-59.5.1-43.4-5.6-85.1-21.1-117.5-43.7l-7.9-5.5-36 18.4c-19.9 10.1-45.3 23-56.6 28.7l-20.4 10.2 3.4 2.9c1.9 1.7 6.7 5.3 10.5 8.2 55.1 41.1 124.6 67.5 198 75.1 17.3 1.8 59.5 2.1 75.5.5 112.9-11.1 212.2-64.6 281.7-151.5 51.8-64.8 84.3-145.5 91.3-226.5 1.6-18 1.3-57.8-.5-76.1-1.8-19.4-5.1-38.3-11-64.8-10-44.4-13-70.5-12.9-110.1 0-24.7.4-31.7 2.1-43 7.4-47.5 21.5-87.4 46.6-132 13.7-24.4 38.3-62.2 59.8-92 20.2-27.9 34.5-47.3 40.2-54.7 3.2-4.1 5.7-7.6 5.5-7.9-.2-.2-8.5 7.8-18.3 17.9M1255 864c-111.5 6.1-217.8 59.9-290.6 147-47.9 57.4-79.8 127-92.8 202.5-7.9 46.2-7.2 98.5 2 144.5 3 15.3 11.3 44.8 16.5 59.1 6.7 18.3 15 45 17.5 56.4 9.1 41.1-.9 90.8-26.8 133.5-7.8 12.9-23.9 35.3-33.3 46.6-9 10.8-18.1 21.2-56.6 64-47.1 52.6-78.4 88.3-77.7 88.8.2.2 14.1-12.6 30.9-28.3 31.1-29.1 78-72.2 145.9-134.1 13.5-12.3 32.6-29.8 42.5-39 20.7-19 58.3-53.5 76-69.5 6.7-6.1 19.1-17.5 27.7-25.4l15.7-14.3-10.7-10.7c-12.8-12.7-20.4-22.5-27.8-35.7-22.7-41.2-25.5-85.8-8-129l3.3-8-4.9-5.5c-19.3-21.5-31-49.8-32.5-78.9-3.5-67.7 45.3-129.1 119.7-150.5 6.8-2 12.5-3.7 12.6-3.8 0-.1 1.3-4 2.8-8.6 15.8-49.5 60.7-89.5 116.4-103.5 22.4-5.7 50.9-7.2 74.4-4.1 30.8 4.1 62.1 16.9 86.7 35.6 4.6 3.5 9.3 7 10.5 7.7 1.9 1.3 7.8-1.1 62.1-24.3 33-14.2 61.5-26.5 63.4-27.5l3.5-1.7-7.5-5.5c-48.8-35.9-103.5-60.1-161.4-71.2-33.6-6.4-64.6-8.5-99.5-6.6"/><path d="M1123.5 1168.8c-7.2 2.5-12.1 6.6-14.9 12.5-6.3 13.1-4.9 17.7 13.7 44.7 7.8 11.3 20.5 30 28.4 41.6l14.2 21.2-13.2 19.9c-33.2 50-41.8 63.3-43.3 66.9-3.9 9.1-1.4 21.3 5.7 28.2 5.8 5.7 10.4 7.6 18.9 7.6 6.5.1 8.2-.3 13-2.9 5.2-2.9 6.3-4.3 21.7-27.5 54.8-82.9 55.2-83.5 55.3-92 0-8.4-2.4-13.2-18.1-36.5-38.7-57.3-52.4-77-54.8-79.1-3.6-3.2-12.3-6.4-17.4-6.4-2.3.1-6.5.8-9.2 1.8m176 167.1c-16.9 7.8-16.5 32.4.7 39.5 3.3 1.4 12.8 1.6 74.8 1.6 68 0 71.2-.1 74.8-1.9 7.6-3.9 12.2-11.3 12.2-19.6s-4.6-15.7-12.2-19.6c-3.6-1.8-6.8-1.9-75-1.9-67.3 0-71.5.1-75.3 1.9"/></svg>